<svg width="118" height="118" viewBox="0 0 118 118" fill="none" xmlns="http://www.w3.org/2000/svg">
<path d="M91.3781 31.1131H113.506C114.697 31.1116 115.839 30.6381 116.681 29.7962C117.523 28.9543 117.998 27.8129 118 26.622V4.49407C117.998 3.30264 117.525 2.16044 116.682 1.31797C115.84 0.475494 114.697 0.00152309 113.506 0H91.3781C90.1866 0.00152309 89.0444 0.475494 88.2019 1.31797C87.3595 2.16044 86.8855 3.30264 86.884 4.49407V13.8276H66.1448C65.6868 13.8276 65.2476 14.0095 64.9237 14.3334C64.5999 14.6572 64.4179 15.0964 64.4179 15.5544V38.373H54.9707V31.6226C56.1229 31.2152 57.094 30.4137 57.7123 29.3596C58.3306 28.3055 58.5564 27.0668 58.3498 25.8623C58.1431 24.6579 57.5173 23.5652 56.583 22.7776C55.6487 21.9899 54.466 21.5579 53.2439 21.5579C52.0219 21.5579 50.8391 21.9899 49.9048 22.7776C48.9705 23.5652 48.3447 24.6579 48.138 25.8623C47.9314 27.0668 48.1572 28.3055 48.7755 29.3596C49.3938 30.4137 50.3649 31.2152 51.5171 31.6226V38.373H43.7866C42.3514 38.3749 40.9756 38.9459 39.9607 39.9607C38.9459 40.9756 38.3749 42.3514 38.373 43.7866V53.8195H17.2856V31.1131H26.622C27.8124 31.1109 28.9534 30.637 29.7952 29.7952C30.637 28.9534 31.1109 27.8124 31.1131 26.622V22.125C31.1131 21.8982 31.0685 21.6737 30.9817 21.4642C30.8949 21.2547 30.7677 21.0643 30.6074 20.9039C30.447 20.7436 30.2567 20.6164 30.0471 20.5296C29.8376 20.4428 29.6131 20.3982 29.3863 20.3982C29.1595 20.3982 28.935 20.4428 28.7255 20.5296C28.516 20.6164 28.3256 20.7436 28.1653 20.9039C28.0049 21.0643 27.8777 21.2547 27.7909 21.4642C27.7042 21.6737 27.6595 21.8982 27.6595 22.125V26.622C27.6587 26.8969 27.5492 27.1604 27.3548 27.3548C27.1604 27.5492 26.8969 27.6587 26.622 27.6595H4.49407C4.21864 27.6595 3.95444 27.5503 3.7594 27.3558C3.56437 27.1613 3.45442 26.8974 3.45366 26.622V4.49407C3.45366 4.35744 3.48057 4.22215 3.53286 4.09592C3.58514 3.9697 3.66178 3.855 3.75839 3.75839C3.855 3.66178 3.9697 3.58514 4.09592 3.53286C4.22215 3.48057 4.35744 3.45366 4.49407 3.45366H26.622C26.8969 3.45442 27.1604 3.56397 27.3548 3.75838C27.5492 3.9528 27.6587 4.21626 27.6595 4.4912V14.75C27.6595 15.208 27.8414 15.6472 28.1653 15.9711C28.4891 16.2949 28.9283 16.4768 29.3863 16.4768C29.8443 16.4768 30.2835 16.2949 30.6074 15.9711C30.9312 15.6472 31.1131 15.208 31.1131 14.75V4.49407C31.1116 3.30314 30.6381 2.16137 29.7962 1.31898C28.9543 0.476591 27.8129 0.00228417 26.622 0L4.49407 0C3.30264 0.00152309 2.16044 0.475494 1.31797 1.31797C0.475494 2.16044 0.00152309 3.30264 0 4.49407L0 26.622C0.00152309 27.8134 0.475494 28.9556 1.31797 29.7981C2.16044 30.6405 3.30264 31.1145 4.49407 31.116H13.8276V55.5463C13.8276 56.0043 14.0095 56.4436 14.3334 56.7674C14.6572 57.0912 15.0964 57.2732 15.5544 57.2732H38.373V64.6482H36.0015C35.5942 63.496 34.7926 62.5249 33.7385 61.9066C32.6845 61.2883 31.4457 61.0625 30.2413 61.2691C29.0368 61.4758 27.9442 62.1016 27.1565 63.0359C26.3688 63.9702 25.9368 65.1529 25.9368 66.375C25.9368 67.5971 26.3688 68.7798 27.1565 69.7141C27.9442 70.6484 29.0368 71.2742 30.2413 71.4809C31.4457 71.6875 32.6845 71.4617 33.7385 70.8434C34.7926 70.2251 35.5942 69.254 36.0015 68.1018H38.373V74.2119C38.3749 75.6471 38.9459 77.023 39.9607 78.0378C40.9756 79.0527 42.3514 79.6236 43.7866 79.6255H51.5171V100.156H31.1131V91.3781C31.1109 90.1876 30.637 89.0466 29.7952 88.2048C28.9534 87.3631 27.8124 86.8891 26.622 86.8869H4.49407C3.30314 86.8884 2.16137 87.362 1.31898 88.2038C0.476591 89.0457 0.00228417 90.1871 0 91.3781L0 113.506C0.00152309 114.697 0.475494 115.84 1.31797 116.682C2.16044 117.525 3.30264 117.998 4.49407 118H26.622C27.8134 117.998 28.9556 117.525 29.7981 116.682C30.6405 115.84 31.1145 114.697 31.116 113.506V103.61H53.2439C53.7019 103.61 54.1411 103.428 54.465 103.104C54.7888 102.78 54.9707 102.341 54.9707 101.883V79.627H64.4208V87.2984C63.2686 87.7058 62.2976 88.5073 61.6792 89.5614C61.0609 90.6155 60.8351 91.8542 61.0418 93.0587C61.2484 94.2631 61.8742 95.3557 62.8085 96.1434C63.7429 96.9311 64.9256 97.3631 66.1476 97.3631C67.3697 97.3631 68.5524 96.9311 69.4867 96.1434C70.4211 95.3557 71.0469 94.2631 71.2535 93.0587C71.4602 91.8542 71.2344 90.6155 70.616 89.5614C69.9977 88.5073 69.0266 87.7058 67.8745 87.2984V79.627H74.2148C75.65 79.6251 77.0259 79.0541 78.0407 78.0393C79.0555 77.0244 79.6265 75.6486 79.6284 74.2134V62.445H100.717V86.8869H91.3781C90.1876 86.8891 89.0466 87.3631 88.2048 88.2048C87.3631 89.0466 86.8891 90.1876 86.8869 91.3781V95.8721C86.8869 96.3301 87.0688 96.7693 87.3926 97.0932C87.7165 97.417 88.1557 97.599 88.6137 97.599C89.0717 97.599 89.5109 97.417 89.8347 97.0932C90.1586 96.7693 90.3405 96.3301 90.3405 95.8721V91.3781C90.3413 91.1031 90.4508 90.8397 90.6452 90.6452C90.8397 90.4508 91.1031 90.3413 91.3781 90.3405H113.506C113.781 90.3413 114.044 90.4508 114.239 90.6452C114.433 90.8397 114.543 91.1031 114.543 91.3781V113.506C114.543 113.781 114.433 114.044 114.239 114.239C114.044 114.433 113.781 114.543 113.506 114.543H91.3781C91.1031 114.543 90.8397 114.433 90.6452 114.239C90.4508 114.044 90.3413 113.781 90.3405 113.506V103.221C90.3405 102.763 90.1586 102.324 89.8347 102C89.5109 101.676 89.0717 101.494 88.6137 101.494C88.1557 101.494 87.7165 101.676 87.3926 102C87.0688 102.324 86.8869 102.763 86.8869 103.221V113.506C86.8884 114.697 87.362 115.839 88.2038 116.681C89.0457 117.523 90.1871 117.998 91.3781 118H113.506C114.697 117.998 115.84 117.525 116.682 116.682C117.525 115.84 117.998 114.697 118 113.506V91.3781C117.998 90.1866 117.525 89.0444 116.682 88.2019C115.84 87.3595 114.697 86.8855 113.506 86.884H104.175V60.7168C104.175 60.49 104.131 60.2654 104.044 60.0559C103.957 59.8464 103.83 59.6561 103.67 59.4957C103.509 59.3354 103.319 59.2082 103.109 59.1214C102.9 59.0346 102.675 58.9899 102.448 58.9899H79.627V53.123H87.864C88.2713 54.2752 89.0729 55.2463 90.1269 55.8646C91.181 56.4829 92.4197 56.7087 93.6242 56.5021C94.8287 56.2954 95.9213 55.6696 96.709 54.7353C97.4966 53.801 97.9286 52.6183 97.9286 51.3962C97.9286 50.1741 97.4966 48.9914 96.709 48.0571C95.9213 47.1228 94.8287 46.497 93.6242 46.2903C92.4197 46.0837 91.181 46.3095 90.1269 46.9278C89.0729 47.5461 88.2713 48.5172 87.864 49.6694H79.627V43.7866C79.6251 42.3514 79.0541 40.9756 78.0393 39.9607C77.0244 38.9459 75.6486 38.3749 74.2134 38.373H67.873V17.2856H86.8869V26.622C86.8891 27.8124 87.3631 28.9534 88.2048 29.7952C89.0466 30.637 90.1876 31.1109 91.3781 31.1131ZM53.2439 25.0059C53.5854 25.0059 53.9193 25.1072 54.2033 25.297C54.4873 25.4867 54.7086 25.7564 54.8393 26.0719C54.97 26.3875 55.0042 26.7347 54.9375 27.0696C54.8709 27.4046 54.7065 27.7123 54.465 27.9538C54.2235 28.1953 53.9158 28.3598 53.5808 28.4264C53.2458 28.493 52.8986 28.4588 52.5831 28.3281C52.2675 28.1974 51.9978 27.9761 51.8081 27.6921C51.6184 27.4082 51.5171 27.0743 51.5171 26.7328C51.5171 26.2748 51.699 25.8355 52.0229 25.5117C52.3467 25.1879 52.7859 25.0059 53.2439 25.0059ZM31.1131 68.1033C30.7716 68.1033 30.4377 68.002 30.1538 67.8122C29.8698 67.6225 29.6485 67.3528 29.5178 67.0373C29.3871 66.7217 29.3529 66.3745 29.4195 66.0396C29.4861 65.7046 29.6506 65.3969 29.8921 65.1554C30.1336 64.9139 30.4413 64.7494 30.7763 64.6828C31.1112 64.6162 31.4584 64.6504 31.774 64.7811C32.0895 64.9118 32.3592 65.1331 32.549 65.4171C32.7387 65.701 32.84 66.0349 32.84 66.3764C32.84 66.8344 32.658 67.2737 32.3342 67.5975C32.0104 67.9213 31.5711 68.1033 31.1131 68.1033ZM27.6595 113.506C27.6587 113.781 27.5492 114.044 27.3548 114.239C27.1604 114.433 26.8969 114.543 26.622 114.543H4.49407C4.21913 114.543 3.95567 114.433 3.76126 114.239C3.56685 114.044 3.4573 113.781 3.45654 113.506V91.3781C3.4573 91.1031 3.56685 90.8397 3.76126 90.6452C3.95567 90.4508 4.21913 90.3413 4.49407 90.3405H26.622C26.8969 90.3413 27.1604 90.4508 27.3548 90.6452C27.5492 90.8397 27.6587 91.1031 27.6595 91.3781V113.506ZM66.1448 93.9165C65.8032 93.9165 65.4694 93.8152 65.1854 93.6255C64.9014 93.4357 64.6801 93.166 64.5494 92.8505C64.4187 92.535 64.3845 92.1877 64.4511 91.8528C64.5177 91.5178 64.6822 91.2101 64.9237 90.9686C65.1652 90.7271 65.4729 90.5626 65.8079 90.496C66.1428 90.4294 66.4901 90.4636 66.8056 90.5943C67.1211 90.725 67.3908 90.9463 67.5806 91.2303C67.7703 91.5143 67.8716 91.8481 67.8716 92.1897C67.8716 92.6477 67.6897 93.0869 67.3658 93.4107C67.042 93.7346 66.6027 93.9165 66.1448 93.9165ZM92.7523 49.6665C93.0939 49.6665 93.4277 49.7678 93.7117 49.9575C93.9957 50.1473 94.217 50.417 94.3477 50.7325C94.4784 51.048 94.5126 51.3952 94.446 51.7302C94.3793 52.0652 94.2149 52.3729 93.9734 52.6144C93.7319 52.8559 93.4242 53.0203 93.0892 53.087C92.7542 53.1536 92.407 53.1194 92.0915 52.9887C91.776 52.858 91.5063 52.6367 91.3165 52.3527C91.1268 52.0687 91.0255 51.7349 91.0255 51.3933C91.0255 50.9353 91.2074 50.4961 91.5313 50.1723C91.8551 49.8484 92.2943 49.6665 92.7523 49.6665ZM76.1704 43.7866V74.2134C76.1701 74.7323 75.9637 75.2299 75.5968 75.5968C75.2299 75.9637 74.7323 76.1701 74.2134 76.1704H43.7866C43.2677 76.1701 42.7701 75.9637 42.4032 75.5968C42.0363 75.2299 41.8299 74.7323 41.8296 74.2134V43.7866C41.8299 43.2677 42.0363 42.7701 42.4032 42.4032C42.7701 42.0363 43.2677 41.8299 43.7866 41.8296H74.2134C74.7323 41.8299 75.2299 42.0363 75.5968 42.4032C75.9637 42.7701 76.1701 43.2677 76.1704 43.7866ZM91.3781 3.45366H113.506C113.781 3.45442 114.044 3.56397 114.239 3.75838C114.433 3.9528 114.543 4.21626 114.543 4.4912V26.622C114.543 26.8969 114.433 27.1604 114.239 27.3548C114.044 27.5492 113.781 27.6587 113.506 27.6595H91.3781C91.1031 27.6587 90.8397 27.5492 90.6452 27.3548C90.4508 27.1604 90.3413 26.8969 90.3405 26.622V15.6019V15.5573V15.5112V4.49407C90.3405 4.21864 90.4497 3.95444 90.6442 3.7594C90.8387 3.56437 91.1026 3.45442 91.3781 3.45366Z" fill="white" stroke="white" stroke-width="0.719512"/>
</svg>
